<svg width="16" height="16" viewBox="0 0 16 16" fill="none" xmlns="http://www.w3.org/2000/svg">
<path d="M7.23879 2.34264C7.47879 1.60584 8.52119 1.60584 8.76039 2.34264L9.61639 4.97624C9.66869 5.13663 9.77035 5.27638 9.90685 5.37552C10.0433 5.47466 10.2077 5.52811 10.3764 5.52824H13.146C13.9212 5.52824 14.2428 6.52024 13.6164 6.97624L11.3764 8.60344C11.2396 8.70266 11.1378 8.84265 11.0855 9.00332C11.0331 9.164 11.033 9.33711 11.0852 9.49784L11.9412 12.1314C12.1812 12.8682 11.3372 13.4818 10.7092 13.0258L8.46919 11.3986C8.33255 11.2994 8.16804 11.246 7.99919 11.246C7.83034 11.246 7.66582 11.2994 7.52919 11.3986L5.28919 13.0258C4.66199 13.4818 3.81879 12.8682 4.05799 12.1314L4.91399 9.49784C4.96613 9.33711 4.96603 9.164 4.91372 9.00332C4.86141 8.84265 4.75956 8.70266 4.62279 8.60344L2.38359 6.97704C1.75719 6.52104 2.07959 5.52904 2.85399 5.52904H5.62279C5.79163 5.52908 5.95615 5.47571 6.09281 5.37656C6.22947 5.27741 6.33125 5.13756 6.38359 4.97704L7.23959 2.34344L7.23879 2.34264Z" fill="#2F302C"/>
</svg>
